<svg width="523" height="195" viewBox="0 0 523 195" fill="none" xmlns="http://www.w3.org/2000/svg">
<path d="M97.8116 191.596C96.0152 191.596 94.4883 190.966 93.2309 189.707C91.9734 188.448 91.3447 186.829 91.3447 184.85V152.467H6.46688C4.67052 152.467 3.14362 151.838 1.88617 150.578C0.628725 149.319 0 147.7 0 145.721V123.863C0 122.603 0.269453 121.254 0.80836 119.815C1.34727 118.376 2.06581 117.027 2.96399 115.767L81.9138 7.28605C84.2491 4.22771 87.5723 2.69853 91.8836 2.69853H126.104C127.901 2.69853 129.427 3.32819 130.685 4.58752C131.942 5.84683 132.571 7.46595 132.571 9.44488V116.577H156.552C158.708 116.577 160.325 117.206 161.403 118.466C162.66 119.725 163.289 121.254 163.289 123.053V145.721C163.289 147.7 162.66 149.319 161.403 150.578C160.145 151.838 158.618 152.467 156.822 152.467H132.571V184.85C132.571 186.829 131.942 188.448 130.685 189.707C129.427 190.966 127.901 191.596 126.104 191.596H97.8116ZM41.7653 117.926H92.153V46.9545L41.7653 117.926Z" fill="#2D76F9"/>
<path d="M261.907 194.295C248.973 194.295 237.835 192.496 228.494 188.898C219.333 185.12 211.698 179.992 205.591 173.516C199.663 166.859 195.172 159.214 192.118 150.578C189.244 141.763 187.537 132.408 186.999 122.514C186.819 117.656 186.639 112.259 186.46 106.322C186.46 100.206 186.46 94.089 186.46 87.9723C186.639 81.8556 186.819 76.2786 186.999 71.2414C187.358 61.3467 189.064 52.0817 192.118 43.4464C195.352 34.8111 200.022 27.2552 206.13 20.7787C212.237 14.3022 219.872 9.26498 229.033 5.66693C238.374 1.88898 249.332 0 261.907 0C274.481 0 285.349 1.88898 294.51 5.66693C303.672 9.26498 311.306 14.3022 317.414 20.7787C323.522 27.2552 328.102 34.8111 331.156 43.4464C334.389 52.0817 336.276 61.3467 336.815 71.2414C336.994 76.2786 337.084 81.8556 337.084 87.9723C337.264 94.089 337.264 100.206 337.084 106.322C337.084 112.259 336.994 117.656 336.815 122.514C336.276 132.408 334.479 141.763 331.426 150.578C328.372 159.214 323.791 166.859 317.683 173.516C311.755 179.992 304.121 185.12 294.78 188.898C285.618 192.496 274.661 194.295 261.907 194.295ZM261.907 159.214C272.325 159.214 279.96 155.795 284.81 148.959C289.66 142.123 292.265 132.858 292.624 121.164C292.804 115.947 292.894 110.55 292.894 104.973C293.073 99.3961 293.073 93.8191 292.894 88.2421C292.894 82.6652 292.804 77.448 292.624 72.5906C292.265 61.4367 289.66 52.3516 284.81 45.3354C279.96 38.3192 272.325 34.7212 261.907 34.5413C251.308 34.7212 243.584 38.3192 238.734 45.3354C234.063 52.3516 231.548 61.4367 231.189 72.5906C231.009 77.448 230.83 82.6652 230.65 88.2421C230.65 93.8191 230.65 99.3961 230.65 104.973C230.83 110.55 231.009 115.947 231.189 121.164C231.548 132.858 234.153 142.123 239.003 148.959C243.853 155.795 251.488 159.214 261.907 159.214Z" fill="#2D76F9"/>
<path d="M457.521 191.596C455.725 191.596 454.198 190.966 452.941 189.707C451.683 188.448 451.054 186.829 451.054 184.85V152.467H366.177C364.38 152.467 362.853 151.838 361.596 150.578C360.338 149.319 359.71 147.7 359.71 145.721V123.863C359.71 122.603 359.979 121.254 360.518 119.815C361.057 118.376 361.775 117.027 362.674 115.767L441.624 7.28605C443.959 4.22771 447.282 2.69853 451.593 2.69853H485.814C487.61 2.69853 489.137 3.32819 490.395 4.58752C491.652 5.84683 492.281 7.46595 492.281 9.44488V116.577H516.262C518.418 116.577 520.034 117.206 521.112 118.466C522.37 119.725 522.998 121.254 522.998 123.053V145.721C522.998 147.7 522.37 149.319 521.112 150.578C519.855 151.838 518.328 152.467 516.531 152.467H492.281V184.85C492.281 186.829 491.652 188.448 490.395 189.707C489.137 190.966 487.61 191.596 485.814 191.596H457.521ZM401.475 117.926H451.863V46.9545L401.475 117.926Z" fill="#2D76F9"/>
</svg>
