<svg width="21" height="23" viewBox="0 0 21 23" fill="none" xmlns="http://www.w3.org/2000/svg">
<path d="M14.4994 6.66699L5.38756 15.9301C5.05937 16.2583 4.875 16.7034 4.875 17.1675C4.875 17.6317 5.05937 18.0768 5.38756 18.405C5.71575 18.7332 6.16087 18.9175 6.625 18.9175C7.08913 18.9175 7.53425 18.7332 7.86244 18.405L18.7242 7.39187C19.0492 7.06686 19.307 6.68102 19.4829 6.25638C19.6588 5.83174 19.7494 5.37662 19.7494 4.91699C19.7494 4.45737 19.6588 4.00224 19.4829 3.5776C19.307 3.15296 19.0492 2.76712 18.7242 2.44212C18.3992 2.11711 18.0134 1.85931 17.5888 1.68341C17.1641 1.50752 16.709 1.41699 16.2494 1.41699C15.7897 1.41699 15.3346 1.50752 14.91 1.68341C14.4853 1.85931 14.0995 2.11711 13.7745 2.44212L2.91269 13.4552C1.92812 14.4398 1.375 15.7751 1.375 17.1675C1.375 18.5599 1.92812 19.8953 2.91269 20.8798C3.89726 21.8644 5.23261 22.4175 6.625 22.4175C8.01739 22.4175 9.35275 21.8644 10.3373 20.8798L19.3119 11.917" stroke="#EEF3FF" stroke-linecap="round" stroke-linejoin="round"/>
</svg>
